<?xml version="1.0" encoding="UTF-8"?>
<svg id="_레이어_1" data-name="레이어 1" xmlns="http://www.w3.org/2000/svg" viewBox="0 0 1686.3 523.53">
  <g>
    <path d="M234.64,244.54c0,10.02-1.02,18.03-2.82,24.7H60.66v-21.38h95.54c21.6,0,26.88-9.19,26.88-25.59,0-27.63-17.8-46.57-40.04-46.57-23.68,0-48.72,22.32-48.72,87,0,55.99,27.97,83.62,67.19,83.62,26.49,0,43.83-11.56,58.71-27.99l12.99,11.4c-17.36,33.6-47.97,52.37-90.24,52.37-62.94,0-105.89-42.35-105.89-112.89s52.42-115.25,109.37-115.25c52.96,0,88.2,36.12,88.2,90.57Z" fill="#fff"/>
    <path d="M305.58,350.54l37.01,6.82v18.39h-87.81v-18.39l38.53-6.82h12.26ZM304.07,186.21l-46.96-7.32v-18.59h112.87v18.59l-43.08,7.32h-22.83ZM266.53,375.75l95.33-124.19,16.95,10.35-81.52,113.84h-30.75ZM331.08,160.31l58.16,87.55,84.67,127.9h-62.71l-60.98-92.38-79.89-123.06h60.74ZM473.53,160.31l-92.61,118.97-15.51-11.7,76.96-107.27h31.16ZM438.19,348.36l49.83,9v18.39h-118.85v-18.39l54.45-9h14.57ZM433.39,185.76l-33.72-6.87v-18.59h81.46v18.59l-35.65,6.87h-12.09Z" fill="#fff"/>
    <path d="M529.5,257.63c0-24.75-.45-36.39-1.35-54.39l-31.71-4.05v-16.74l74.91-28.49,7.08,4.33,3.27,36.6,1.96,3.87v140.89l-1.35,4.19v38.56c0,30.01.45,62.58,1.35,98.37h-55.52c.9-35.79,1.35-67.79,1.35-97.8v-125.35ZM618.47,462.22v18.56h-120.65v-18.56l46.89-9h26.67l47.09,9ZM626.75,185.98c-20.28,0-41.63,16.69-65.23,40.05l-4.05-7.77c25.93-44.06,55.51-64.3,90.74-64.3,48.36,0,86.82,40.98,86.82,113.09s-42.57,115.05-94.23,115.05c-34.06,0-59.81-17.89-81.68-64.52l4.05-7.7c20.92,27.22,38.23,40.69,60.44,40.69,30.4,0,53.84-25.39,53.84-80.97s-20.88-83.63-50.71-83.63Z" fill="#fff"/>
    <path d="M841.04,45.89l6.79,4.1-1.8,63.4v167.86c0,31.5.45,63,1.35,94.5h-56.87c.9-31.5,1.35-63,1.35-94.5V88.04l-32.56-4.5v-17.4l81.73-20.25ZM877.44,357.36v18.39h-116.98v-18.39l46.89-9h21.72l48.37,9Z" fill="#fff"/>
    <path d="M981.69,254.05c18.73-6.09,48.9-14.35,70.74-18.9v17.52c-20.75,4.71-46.14,12.27-59.47,18-30.26,12.12-39.22,28.22-39.22,45.4,0,23.19,13.77,33.13,31.66,33.13,12.12,0,20.12-4.69,41.37-19.99l13.62-10.22,5.47,7.96-16.02,16.85c-24.36,25.02-39,38.28-69.09,38.28-33.84,0-59.64-19.73-59.64-56.91,0-28.67,15.65-50.07,80.57-71.13ZM1024.52,336.67v-107.72c0-41.95-10.12-53.25-39.33-53.25-10.68,0-23.19,1.35-41.33,7.27l24.61-15.77-7.41,34.9c-2.56,21.64-13.28,31.32-28.07,31.32s-23.15-7.25-25.37-20.31c5.41-35.85,40.2-59.15,95.27-59.15,52.13,0,74.8,22.8,74.8,81.32v98.21c0,14.47,4.98,20.18,13.35,20.18,6.16,0,10.45-3.22,15.57-9.9l10.49,8.91c-10.8,20.9-24.93,28.57-46.34,28.57-27.72,0-44.25-17.01-46.24-44.58Z" fill="#fff"/>
    <path d="M1161.22,375.75c.9-20.25,1.35-66.6,1.35-94.5v-21.32c0-24.75-.45-38.7-1.35-56.7l-32.28-4.05v-16.74l81.33-28.49,7.25,4.67-1.35,63.06v59.56c0,27.9.45,74.25,1.35,94.5h-56.3ZM1244.07,357.36v18.39h-111.59v-18.39l45.54-9h21.72l44.34,9ZM1154.76,79.88c0-19.08,15.03-32.15,33.99-32.15s33.99,13.07,33.99,32.15-15.03,32.15-33.99,32.15-33.99-13.35-33.99-32.15Z" fill="#fff"/>
    <path d="M1299.85,375.75c.9-20.25,1.35-66.6,1.35-94.5v-23.63c0-24.75-.45-36.39-1.35-54.39l-31.71-4.05v-16.74l75.24-28.49,7.25,4.67,4.74,51.04v71.58c0,27.9.45,74.25,1.35,94.5h-56.87ZM1382.6,357.36v18.39h-111.1v-18.39l45.54-9h21.88l43.68,9ZM1491.51,234.24v47.02c0,28.8.45,74.25,1.35,94.5h-56.87c.9-20.25,1.35-65.7,1.35-94.5v-42.59c0-35.24-8.98-47.09-31.36-47.09-19.2,0-39.3,10.49-60.98,32.04h-12.42v-24.71h26.75l-18.19,10.41c26.43-37.1,57.15-55.35,89.26-55.35,38.87,0,61.11,24.68,61.11,80.28ZM1474.9,348.36l44.5,9v18.39h-111.26v-18.39l45.04-9h21.72Z" fill="#fff"/>
    <path d="M1562.35,346.3c0-20.03,15.93-36.58,36.12-36.58s36.12,16.55,36.12,36.58-15.93,35.79-36.12,35.79-36.12-16.22-36.12-35.79Z" fill="#fff"/>
  </g>
  <line y1="261.77" x2="1686.3" y2="261.77" fill="none" stroke="#fff" stroke-miterlimit="10" stroke-width="41"/>
</svg>